  0
SECTION
  2
HEADER
  9
$ACADVER
  1
AC1009
  0
ENDSEC
  0
SECTION
  2
ENTITIES
  0
POLYLINE
  5
90
  8
Layer_0
  62
0
  70
1
  66
1
  10
0
  20
0
  30
0
  0
VERTEX
  5
90
  8
Layer_0
  10
678.7038
  20
411.50586
  0
VERTEX
  5
91
  8
Layer_0
  10
676.20386
  20
406.50592
  0
VERTEX
  5
92
  8
Layer_0
  10
676.20386
  20
376.50616
  0
VERTEX
  5
93
  8
Layer_0
  10
678.7038
  20
371.50623
  0
VERTEX
  5
94
  8
Layer_0
  10
681.2038
  20
376.50616
  0
VERTEX
  5
95
  8
Layer_0
  10
681.2038
  20
406.50592
  0
VERTEX
  5
96
  8
Layer_0
  10
678.7038
  20
411.50586
  0
SEQEND
  0
POLYLINE
  5
98
  8
Layer_0
  62
0
  70
1
  66
1
  10
0
  20
0
  30
0
  0
VERTEX
  5
98
  8
Layer_0
  10
671.20392
  20
366.50629
  0
VERTEX
  5
99
  8
Layer_0
  10
686.20374
  20
366.50629
  0
VERTEX
  5
9a
  8
Layer_0
  10
686.20374
  20
416.5058
  0
VERTEX
  5
9b
  8
Layer_0
  10
671.20392
  20
416.5058
  0
VERTEX
  5
9c
  8
Layer_0
  10
671.20392
  20
366.50629
  0
SEQEND
  0
POLYLINE
  5
9e
  8
Layer_0
  62
0
  70
1
  66
1
  10
0
  20
0
  30
0
  0
VERTEX
  5
9e
  8
Layer_0
  10
701.30359
  20
411.50586
  0
VERTEX
  5
9f
  8
Layer_0
  10
703.80359
  20
406.50592
  0
VERTEX
  5
a0
  8
Layer_0
  10
703.80359
  20
376.50616
  0
VERTEX
  5
a1
  8
Layer_0
  10
701.30359
  20
371.50623
  0
VERTEX
  5
a2
  8
Layer_0
  10
698.80365
  20
376.50616
  0
VERTEX
  5
a3
  8
Layer_0
  10
698.80365
  20
406.50592
  0
VERTEX
  5
a4
  8
Layer_0
  10
701.30359
  20
411.50586
  0
SEQEND
  0
POLYLINE
  5
a6
  8
Layer_0
  62
0
  70
1
  66
1
  10
0
  20
0
  30
0
  0
VERTEX
  5
a6
  8
Layer_0
  10
693.80371
  20
416.5058
  0
VERTEX
  5
a7
  8
Layer_0
  10
708.80353
  20
416.5058
  0
VERTEX
  5
a8
  8
Layer_0
  10
708.80353
  20
366.50629
  0
VERTEX
  5
a9
  8
Layer_0
  10
693.80371
  20
366.50629
  0
VERTEX
  5
aa
  8
Layer_0
  10
693.80371
  20
416.5058
  0
SEQEND
  0
POLYLINE
  5
ac
  8
Layer_0
  62
0
  70
1
  66
1
  10
0
  20
0
  30
0
  0
VERTEX
  5
ac
  8
Layer_0
  10
713.80347
  20
361.50635
  0
VERTEX
  5
ad
  8
Layer_0
  10
713.80347
  20
488.50513
  0
VERTEX
  5
ae
  8
Layer_0
  10
666.20392
  20
488.50513
  0
VERTEX
  5
af
  8
Layer_0
  10
666.20392
  20
361.50635
  0
VERTEX
  5
b0
  8
Layer_0
  10
713.80347
  20
361.50635
  0
SEQEND
  0
ENDSEC
  0
EOF
